<?xml version="1.0" encoding="utf-8"?>
<!-- Generator: Adobe Illustrator 15.0.2, SVG Export Plug-In . SVG Version: 6.00 Build 0)  -->
<!DOCTYPE svg PUBLIC "-//W3C//DTD SVG 1.1//EN" "http://www.w3.org/Graphics/SVG/1.1/DTD/svg11.dtd">
<svg version="1.1" id="Layer_1" xmlns="http://www.w3.org/2000/svg" xmlns:xlink="http://www.w3.org/1999/xlink" x="0px" y="0px"
	 width="512px" height="910.225px" viewBox="0 0 512 910.225" enable-background="new 0 0 512 910.225" xml:space="preserve">
<g>
	<path d="M0,555.059c0,43.639,109.792,66.777,227.611,70.057c0,0.221-0.056,0.443-0.056,0.666v170.666
		c0,31.389,12.75,113.777,28.444,113.777s28.444-82.389,28.444-113.777V625.781c0-0.223-0.056-0.445-0.056-0.666
		C402.223,621.836,512,598.697,512,555.059c0-46.305-41.944-80.098-113.777-98.305V162.129C470.056,137.768,512,98.572,512,70.697
		c0-94.263-512-94.263-512,0c0,30.668,41.931,69.014,113.777,92.445v293.611C41.931,475.018,0,508.754,0,555.059z"/>
</g>
</svg>
