<svg xmlns="http://www.w3.org/2000/svg" xmlns:xlink="http://www.w3.org/1999/xlink" version="1.1" x="0px" y="0px" viewBox="0 0 100 125" enable-background="new 0 0 100 100" xml:space="preserve"><g><polygon fill="#000000" points="47.906,86.486 49.798,100 50,100 50.202,100 52.094,86.486 52.995,64.242 47.005,64.242  "/><path fill="#000000" d="M77.333,59.566L75.3,50.711c-0.064-0.34-0.18-0.666-0.342-0.955c-0.051-0.108-0.12-0.214-0.209-0.317   c-0.169-0.22-0.374-0.402-0.61-0.535c-0.132-0.073-0.261-0.154-0.392-0.229c-0.139-0.079-0.279-0.156-0.422-0.228   c-0.158-0.079-0.317-0.153-0.477-0.224c-0.178-0.077-0.357-0.147-0.539-0.216c-0.199-0.074-0.396-0.145-0.598-0.211   c-0.219-0.072-0.438-0.14-0.655-0.203c-0.235-0.07-0.471-0.135-0.709-0.197c-0.252-0.064-0.504-0.127-0.758-0.187   c-0.321-0.075-0.646-0.134-0.969-0.198c-0.503-0.106-1-0.242-1.499-0.365c-0.136-0.034-0.276-0.07-0.414-0.107   c-0.315-0.085-0.629-0.186-0.933-0.306c-0.301-0.118-0.591-0.259-0.87-0.42c-0.276-0.161-0.54-0.344-0.789-0.546   c-0.253-0.204-0.49-0.427-0.709-0.663c-0.222-0.235-0.425-0.488-0.609-0.755c-0.184-0.266-0.349-0.545-0.49-0.836   c-0.142-0.291-0.259-0.593-0.351-0.903c-0.097-0.317-0.167-0.638-0.222-0.963c-0.055-0.332-0.094-0.666-0.129-1.001   c-0.009-0.08-0.024-0.163-0.024-0.242v0.354c-0.003-0.034-0.004-0.068-0.007-0.103c-0.003-0.04-0.004-0.079-0.007-0.118   c-0.001-0.05-0.005-0.099-0.008-0.149c-0.003-0.063-0.007-0.127-0.011-0.191c-0.004-0.081-0.009-0.161-0.014-0.242   c-0.005-0.101-0.012-0.201-0.017-0.302c-0.007-0.119-0.015-0.239-0.021-0.359c-0.008-0.141-0.016-0.279-0.023-0.419   c-0.011-0.158-0.018-0.314-0.026-0.474c-0.011-0.174-0.021-0.347-0.03-0.521c-0.012-0.188-0.022-0.376-0.031-0.565   c-0.012-0.198-0.023-0.398-0.034-0.599c-0.012-0.209-0.024-0.418-0.036-0.628c-0.011-0.216-0.024-0.433-0.035-0.65   c-0.014-0.224-0.026-0.446-0.039-0.67c-0.013-0.229-0.026-0.456-0.039-0.686c-0.014-0.233-0.025-0.466-0.039-0.698   c-0.014-0.238-0.028-0.475-0.04-0.713c-0.015-0.24-0.027-0.481-0.041-0.722c-0.014-0.245-0.027-0.489-0.041-0.733   c-0.015-0.247-0.028-0.494-0.042-0.741c-0.015-0.25-0.029-0.5-0.044-0.749c-0.013-0.252-0.027-0.502-0.042-0.753   c-0.014-0.251-0.029-0.502-0.041-0.753c-0.015-0.249-0.029-0.5-0.043-0.75c-0.016-0.247-0.028-0.495-0.042-0.741   c-0.014-0.244-0.027-0.487-0.043-0.729c-0.011-0.239-0.026-0.477-0.039-0.713c-0.014-0.23-0.025-0.461-0.039-0.692   c-0.013-0.222-0.024-0.443-0.036-0.665c-0.013-0.212-0.026-0.424-0.035-0.636c-0.014-0.2-0.024-0.401-0.036-0.602   c-0.011-0.188-0.02-0.378-0.033-0.566c-0.008-0.176-0.02-0.355-0.028-0.531c-0.01-0.164-0.019-0.328-0.028-0.493   c-0.01-0.152-0.017-0.305-0.026-0.456c-0.009-0.143-0.017-0.284-0.023-0.427c-0.008-0.132-0.015-0.264-0.023-0.396   c-0.013-0.234-0.027-0.468-0.05-0.7c-0.022-0.239-0.011-0.457,0.078-0.683c0.035-0.091,0.065-0.197,0.114-0.283   c0.071-0.184,0.15-0.366,0.237-0.545c0.176-0.354,0.392-0.688,0.633-1.002c0.237-0.311,0.497-0.607,0.777-0.882   c0.278-0.275,0.58-0.525,0.91-0.735c0.193-0.123,0.391-0.232,0.596-0.333c0.279-0.138,0.558-0.266,0.856-0.359   c0.215-0.067,0.433-0.14,0.653-0.192c0.094-0.032,0.187-0.061,0.28-0.093c0.12-0.039,0.24-0.082,0.358-0.125   c0.124-0.046,0.24-0.105,0.36-0.16c0.144-0.065,0.287-0.13,0.428-0.203c0.208-0.108,0.411-0.239,0.593-0.39   c0.081-0.068,0.159-0.144,0.227-0.227c0.383-0.366,0.638-0.903,0.746-1.521l2.034-8.856C70.227,0.915,69.313,0,68.194,0H50H31.806   c-1.119,0-2.033,0.915-2.033,2.032l2.034,8.856c0.108,0.618,0.363,1.155,0.746,1.521c0.067,0.083,0.146,0.159,0.227,0.227   c0.182,0.15,0.385,0.281,0.593,0.39c0.141,0.073,0.284,0.138,0.428,0.203c0.12,0.055,0.237,0.114,0.36,0.16   c0.118,0.043,0.238,0.086,0.358,0.125c0.094,0.031,0.187,0.061,0.281,0.093c0.219,0.053,0.438,0.125,0.652,0.192   c0.298,0.094,0.576,0.222,0.855,0.359c0.205,0.101,0.403,0.21,0.596,0.333c0.33,0.21,0.632,0.46,0.911,0.735   c0.279,0.274,0.539,0.571,0.776,0.882c0.241,0.314,0.457,0.647,0.633,1.002c0.087,0.179,0.166,0.361,0.237,0.545   c0.05,0.086,0.079,0.192,0.114,0.283c0.089,0.226,0.101,0.444,0.078,0.683c-0.022,0.233-0.037,0.466-0.05,0.7   c-0.009,0.133-0.016,0.265-0.023,0.396c-0.007,0.143-0.015,0.284-0.024,0.427c-0.01,0.151-0.017,0.304-0.026,0.456   c-0.01,0.165-0.019,0.329-0.027,0.493c-0.01,0.177-0.021,0.356-0.029,0.531c-0.013,0.188-0.022,0.378-0.032,0.566   c-0.013,0.2-0.023,0.401-0.036,0.602c-0.01,0.212-0.022,0.424-0.036,0.636c-0.011,0.222-0.023,0.443-0.036,0.665   c-0.014,0.231-0.025,0.462-0.039,0.692c-0.013,0.236-0.028,0.474-0.039,0.713c-0.015,0.242-0.029,0.485-0.043,0.729   c-0.014,0.246-0.026,0.494-0.042,0.741c-0.014,0.25-0.028,0.501-0.043,0.75c-0.012,0.251-0.027,0.502-0.041,0.753   c-0.015,0.251-0.028,0.501-0.042,0.753c-0.015,0.249-0.029,0.499-0.044,0.749c-0.014,0.247-0.027,0.494-0.042,0.741   c-0.014,0.244-0.027,0.488-0.041,0.733c-0.014,0.241-0.026,0.481-0.041,0.722c-0.012,0.238-0.026,0.475-0.039,0.713   c-0.015,0.232-0.026,0.465-0.04,0.698c-0.013,0.229-0.026,0.457-0.039,0.686c-0.013,0.224-0.025,0.446-0.039,0.67   c-0.011,0.218-0.025,0.435-0.035,0.65c-0.012,0.21-0.024,0.419-0.036,0.628c-0.011,0.2-0.022,0.4-0.033,0.599   c-0.011,0.189-0.021,0.376-0.032,0.565c-0.01,0.175-0.02,0.348-0.03,0.521c-0.009,0.159-0.016,0.315-0.025,0.474   c-0.009,0.14-0.017,0.278-0.023,0.419c-0.007,0.12-0.015,0.24-0.021,0.359c-0.005,0.101-0.012,0.201-0.017,0.302   c-0.005,0.081-0.009,0.161-0.014,0.242c-0.004,0.064-0.008,0.128-0.011,0.191c-0.003,0.05-0.007,0.099-0.008,0.149   c-0.003,0.039-0.004,0.078-0.007,0.118c-0.003,0.034-0.004,0.068-0.006,0.103v-0.354c0,0.079-0.017,0.162-0.025,0.242   c-0.035,0.335-0.074,0.669-0.129,1.001c-0.055,0.325-0.125,0.646-0.222,0.963c-0.093,0.31-0.21,0.612-0.352,0.903   c-0.142,0.291-0.306,0.57-0.489,0.836c-0.185,0.267-0.389,0.519-0.61,0.755c-0.219,0.236-0.456,0.459-0.707,0.663   c-0.251,0.202-0.515,0.385-0.791,0.546c-0.279,0.161-0.569,0.302-0.869,0.42c-0.305,0.12-0.618,0.221-0.934,0.306   c-0.138,0.037-0.276,0.073-0.414,0.107c-0.499,0.123-0.996,0.259-1.499,0.365c-0.323,0.064-0.647,0.123-0.969,0.198   c-0.254,0.06-0.506,0.122-0.758,0.187c-0.237,0.062-0.474,0.127-0.707,0.197c-0.22,0.063-0.438,0.131-0.657,0.203   c-0.2,0.066-0.399,0.137-0.598,0.211c-0.182,0.068-0.361,0.139-0.539,0.216c-0.159,0.07-0.318,0.145-0.477,0.224   c-0.143,0.071-0.283,0.148-0.422,0.228c-0.131,0.074-0.26,0.155-0.392,0.229c-0.236,0.133-0.441,0.315-0.61,0.535   c-0.089,0.104-0.157,0.21-0.209,0.317c-0.162,0.289-0.277,0.615-0.342,0.955l-2.033,8.855c0,1.118,0.914,2.034,2.032,2.034h22.306   h5.99h22.306C76.419,61.601,77.333,60.685,77.333,59.566z"/></g><text x="0" y="115" fill="#000000" font-size="5px" font-weight="bold" font-family="'Helvetica Neue', Helvetica, Arial-Unicode, Arial, Sans-serif">Created by Nicholas Menghini</text><text x="0" y="120" fill="#000000" font-size="5px" font-weight="bold" font-family="'Helvetica Neue', Helvetica, Arial-Unicode, Arial, Sans-serif">from the Noun Project</text></svg>