<?xml version="1.0" encoding="utf-8"?>
<!-- Generator: Adobe Illustrator 15.0.0, SVG Export Plug-In . SVG Version: 6.00 Build 0)  -->
<!DOCTYPE svg PUBLIC "-//W3C//DTD SVG 1.1//EN" "http://www.w3.org/Graphics/SVG/1.1/DTD/svg11.dtd">
<svg version="1.1" id="Layer_1" xmlns="http://www.w3.org/2000/svg" xmlns:xlink="http://www.w3.org/1999/xlink" x="0px" y="0px"
	 width="45px" height="54px" viewBox="0 0 45 54" enable-background="new 0 0 45 54" xml:space="preserve">
<path fill="#37B6CD" d="M22.476,53.997c-0.205,0-0.409-0.057-0.586-0.169c-0.019-0.013-0.039-0.024-0.057-0.039
	C-4.268,41.513,0.522,10.812,0.573,10.502c0.079-0.472,0.455-0.839,0.93-0.905c9.293-1.299,18.944-8.325,20.185-9.252
	c0.082-0.087,0.178-0.16,0.286-0.215c0.188-0.096,0.398-0.137,0.598-0.126c0.148,0.007,0.295,0.044,0.43,0.112
	c0.125,0.062,0.235,0.146,0.329,0.244c1.321,0.987,10.92,7.945,20.167,9.237c0.473,0.066,0.851,0.433,0.929,0.905
	c0.051,0.31,4.848,31.039-21.298,43.305c-0.009,0.006-0.018,0.011-0.027,0.018c-0.16,0.099-0.341,0.156-0.523,0.169
	C22.543,53.996,22.51,53.997,22.476,53.997z M2.636,11.639c-0.529,4.704-2.174,29.466,19.863,40.039
	c22.068-10.586,20.399-35.336,19.866-40.039c-8.784-1.508-17.349-7.338-19.866-9.167C19.98,4.301,11.418,10.131,2.636,11.639z"/>
<path fill="#37B6CD" d="M17.893,39.072c-0.199,0-0.399-0.053-0.577-0.165c-0.445-0.275-0.633-0.827-0.448-1.318l3.931-10.418h-8.742
	c-0.461,0-0.872-0.288-1.03-0.721c-0.157-0.433-0.027-0.919,0.326-1.215l15.27-12.798c0.401-0.335,0.984-0.341,1.392-0.013
	c0.408,0.329,0.525,0.9,0.282,1.364l-3.646,6.926h8.288c0.435,0,0.83,0.258,1.005,0.658c0.175,0.4,0.094,0.865-0.202,1.185
	L18.696,38.724C18.482,38.953,18.19,39.072,17.893,39.072z M15.072,24.979h7.312c0.36,0,0.697,0.177,0.901,0.473
	c0.205,0.295,0.251,0.673,0.125,1.01l-2.523,6.688l9.533-10.245h-7.584c-0.385,0-0.741-0.201-0.939-0.529
	c-0.199-0.33-0.21-0.738-0.032-1.078l1.897-3.604L15.072,24.979z"/>
</svg>
