<?xml version="1.0" encoding="utf-8"?>
<!-- Generator: Adobe Illustrator 15.0.0, SVG Export Plug-In . SVG Version: 6.00 Build 0)  -->
<!DOCTYPE svg PUBLIC "-//W3C//DTD SVG 1.1//EN" "http://www.w3.org/Graphics/SVG/1.1/DTD/svg11.dtd">
<svg version="1.1" id="Layer_1" xmlns="http://www.w3.org/2000/svg" xmlns:xlink="http://www.w3.org/1999/xlink" x="0px" y="0px"
	 width="59px" height="39px" viewBox="0 0 59 39" enable-background="new 0 0 59 39" xml:space="preserve">
<path fill="#37B6CD" d="M21.327,31.683H8.43c-0.565,0-1.024-0.458-1.024-1.023V21.68c0-0.565,0.458-1.023,1.024-1.023h12.897
	c0.565,0,1.024,0.458,1.024,1.023v8.979C22.351,31.225,21.893,31.683,21.327,31.683z M9.454,29.636h10.849v-6.933H9.454V29.636z"/>
<rect x="7.25" y="7.253" fill="#37B6CD" width="6.059" height="2.048"/>
<rect x="18.559" y="7.253" fill="#37B6CD" width="14.81" height="2.048"/>
<rect x="7.25" y="13.837" fill="#37B6CD" width="26.118" height="2.048"/>
<path fill="#37B6CD" d="M53.998,25.188h-17.2c-2.598,0-4.71-2.113-4.71-4.71V9.243c0-2.597,2.112-4.709,4.71-4.709h17.2
	c2.597,0,4.708,2.113,4.708,4.709v11.234C58.706,23.074,56.595,25.188,53.998,25.188z M36.798,6.582
	c-1.468,0-2.663,1.194-2.663,2.662v11.234c0,1.468,1.195,2.664,2.663,2.664h17.2c1.467,0,2.661-1.195,2.661-2.664V9.243
	c0-1.468-1.194-2.662-2.661-2.662H36.798z"/>
<rect x="39.236" y="11.018" fill="#37B6CD" width="12.32" height="2.048"/>
<rect x="39.236" y="16.308" fill="#37B6CD" width="12.32" height="2.048"/>
<path fill="#37B6CD" d="M41.463,31.683H28.566c-0.565,0-1.024-0.458-1.024-1.023v-8.98c0-0.565,0.458-1.023,1.024-1.023h4.672
	c0.437,0,0.824,0.276,0.968,0.688c0.372,1.074,1.377,1.797,2.5,1.797h4.757c0.565,0,1.023,0.458,1.023,1.023v6.495
	C42.486,31.225,42.028,31.683,41.463,31.683z M29.59,29.636h10.849v-4.448h-3.733c-1.743,0-3.323-0.973-4.134-2.485H29.59V29.636z"
	/>
<path fill="#37B6CD" d="M48.118,23.781v10.175c0,1.468-1.193,2.664-2.662,2.664H4.709c-1.469,0-2.661-1.196-2.661-2.664V4.709
	c0-1.468,1.192-2.662,2.661-2.662h40.747c1.469,0,2.662,1.193,2.662,2.662v1.229h2.048V4.709c0-2.597-2.112-4.709-4.71-4.709H4.709
	C2.111,0,0,2.112,0,4.709v29.247c0,2.598,2.111,4.711,4.709,4.711h40.747c2.598,0,4.71-2.113,4.71-4.711V23.781H48.118z"/>
</svg>
